<?xml version="1.0" encoding="utf-8"?>
<!-- Generator: Adobe Illustrator 25.2.1, SVG Export Plug-In . SVG Version: 6.00 Build 0)  -->
<svg version="1.1" id="Capa_1" xmlns="http://www.w3.org/2000/svg" xmlns:xlink="http://www.w3.org/1999/xlink" x="0px" y="0px"
	 viewBox="0 0 879.1 631.5" style="enable-background:new 0 0 879.1 631.5;" xml:space="preserve">
<style type="text/css">
	.st0{fill:#E6E6E6;}
	.st1{fill:#FFFFFF;}
	.st2{fill:#6C63FF;}
	.st3{fill:#3F3D56;}
	.st4{fill:#CACACA;}
	.st5{fill:#FFB6B6;}
	.st6{fill:#2F2E41;}
	.st7{fill:#FFB8B8;}
</style>
<rect id="b93b1ef9-49b5-4354-905b-d9dddde45a10" x="0.3" y="0.4" class="st0" width="644.7" height="412.9"/>
<rect id="ef7485f9-8ecd-46d9-949e-abdd8aa9e360" x="18.7" y="52.2" class="st1" width="607.9" height="336.7"/>
<rect id="b4c2a7ec-beab-40bc-b587-23a202562f78" class="st2" width="644.7" height="27.4"/>
<circle id="bd6d3ebf-cb6f-4fcb-b7cd-ad5a287d3324" class="st1" cx="20.4" cy="14" r="5.1"/>
<circle id="efb1158e-7a7d-4adb-9063-fc7dc50c76d5" class="st1" cx="39.6" cy="14" r="5.1"/>
<circle id="b51f9e19-f36b-4f29-afd5-008bb0fc20dd" class="st1" cx="58.9" cy="14" r="5.1"/>
<rect id="b636d421-4358-445b-b124-1d058e78c733" x="93.5" y="79.8" class="st0" width="118.9" height="129"/>
<rect id="ab9c902d-64a9-4a2b-a9ec-6dc7022c80f6" x="263.2" y="79.8" class="st0" width="118.9" height="129"/>
<rect id="f4a232af-026e-479b-8040-5c62e5965d9e" x="432.9" y="79.8" class="st0" width="118.9" height="129"/>
<rect id="ada16aa4-f84d-4851-87ee-a2852d96226a" x="93.5" y="232.2" class="st0" width="118.9" height="129"/>
<rect id="ebfcbe07-3b81-4d69-a4f5-6a8318d20e8d" x="263.2" y="232.2" class="st0" width="118.9" height="129"/>
<rect id="ead16b6d-d132-49a9-a42f-1f570e523a46" x="432.9" y="232.2" class="st0" width="118.9" height="129"/>
<path id="ab8ff6e3-f37e-4992-8347-ee905fdba816-201" class="st1" d="M291.9,265.3l21.7-8.6l2.5,42.9c0,0,4.5,13.1,3,18.2
	c0,0,1,8.6-1.5,9.1s-9.6,1.5-10.1,1s-0.5-2-0.5-2s-5.1,3.5-5.6,7.6c0,0-21.2,6.6-21.7,0.5s10.6-11.1,10.6-11.1l8.6-13.1L291.9,265.3
	z"/>
<path id="e647835b-1773-4993-9de9-376235a5ef39-202" class="st1" d="M337.9,265.3l21.7-8.6l2.5,42.9c0,0,4.5,13.1,3,18.2
	c0,0,1,8.6-1.5,9.1s-9.6,1.5-10.1,1s-0.5-2-0.5-2s-5.1,3.5-5.6,7.6c0,0-21.2,6.6-21.7,0.5s10.6-11.1,10.6-11.1l8.6-13.1L337.9,265.3
	z"/>
<path id="ee50e840-b8e9-4cc0-9b2e-64e12816c6e5-203" class="st3" d="M340,99.5c0,0-4.6,12.9,0.7,18.8l-4.5,15.4
	c0,0,15.9,47.6,11.3,54.3c0,0-16.9,8.5-50.8-3l13.8-53.4l-2-22.5l2.7-10.6l6-0.6c0,0-3.6,13.6,3,15.7s13.1-15.4,13.1-15.4L340,99.5z
	"/>
<path id="b668efb4-5504-4326-941b-9be143c4d030-204" class="st1" d="M126.4,182.9l5.8,2.4l27.9-36.6l8.8,43l5.8-1.1
	c3.7-37.1,6.8-74.9,3.1-92.7L156.1,97l-9.8,31.3l-4.8,21.2L126.4,182.9z"/>
<path id="b699d661-049e-451c-8a7e-64343ac1c335-205" class="st1" d="M480.7,97.6c0,0-8,11.1-7.6,15.5s5.4,77.3,5.4,77.3l11.9,0.6
	l-3.5-52.5l2.9-14.2l7.2,66.1l14.6,0.4l-13-85.7l-2.5-7.6L480.7,97.6z"/>
<path id="a4f25674-ecb7-42aa-ae9a-d508200b11eb-206" class="st3" d="M525.7,276c-2.1-2.5-5.8-3.9-9.2-4.7c0.1-0.3-10.6-2.5-10.8-2.1
	l-4-3.2l-12.4,6.4l-7-4.8l-3.2,1.1c0.1-0.6-10.1,1.2-10.1,1.2c-1.9,0.1-4.4,0.2-7.2,0.4c-9.7,0.8-10.5,26-10.5,26
	c4.5-1.8,9.3-2.8,14.1-3l2.6,30.2c13.6-1.2,27.8,0.2,42.5,3.5l6.9-23.7l16.1-6.3C533.4,297.3,530.7,282,525.7,276z"/>
<path id="b6d7fb25-d94e-4ba0-9382-3f72a4c565e4-207" class="st1" d="M180.4,261.6c-1.7-2.1-4.7-3.2-7.6-3.8c0.1-0.3-8.7-2.1-8.9-1.7
	l-3.3-2.7l-10.2,5.3l-5.7-3.9l-2.7,0.9c0.1-0.5-8.3,1-8.3,1c-1.6,0.1-3.7,0.2-5.9,0.3c-8,0.6-8.7,21.4-8.7,21.4
	c3.7-1.5,7.6-2.3,11.6-2.4l2.2,60.9c11.2-1,22.9,0.2,35,2.9l5.7-55.6l13.3-5.2C186.8,279.1,184.6,266.6,180.4,261.6z"/>
<g>
	<polygon class="st1" points="41.6,462.1 43.2,539.8 93.5,566.4 185.2,550.1 187.4,469.3 129.3,448.8 	"/>
	<path class="st4" d="M93.4,567.3l-51-26.9l-1.7-78.9l88.7-13.4l0.2,0.1l58.7,20.7l-2.3,82L93.4,567.3z M44,539.3l49.7,26.2
		l90.7-16.2l2.2-79.6l-57.4-20.2l-86.9,13.2L44,539.3z"/>
	<polygon class="st4" points="92.4,483.2 92.2,483.1 41.3,462.8 41.9,461.4 92.6,481.5 187.3,468.5 187.5,470.1 	"/>
	
		<rect x="92.2" y="482.3" transform="matrix(0.9999 -1.216409e-02 1.216409e-02 0.9999 -6.3712 1.17)" class="st4" width="1.6" height="84.1"/>
	<polygon class="st4" points="81.5,477.3 67.6,471.7 156,457.6 169.9,463.2 	"/>
	
		<rect x="51.4" y="478.4" transform="matrix(0.3955 -0.9185 0.9185 0.3955 -418.4843 344.2115)" class="st4" width="1.6" height="23.2"/>
	
		<rect x="61.1" y="504.9" transform="matrix(0.3955 -0.9185 0.9185 0.3955 -436.9557 369.0695)" class="st2" width="1.6" height="23.2"/>
	<polygon class="st2" points="129,472.8 130.9,563 189.3,593.9 295.7,574.9 298.3,481.1 230.9,457.3 	"/>
	<path class="st3" d="M189.2,594.8L130,563.6l-2-91.6l103-15.6l0.2,0.1l68.1,24l-2.7,95.2L189.2,594.8z M131.8,562.4l57.7,30.5
		l105.3-18.8l2.6-92.4l-66.6-23.4L130,473.6L131.8,562.4z"/>
	<polygon class="st3" points="188,497.2 187.8,497.1 128.7,473.6 129.3,471.9 188.2,495.3 298.2,480.1 298.4,482 	"/>
	
		<rect x="187.8" y="496.3" transform="matrix(0.9999 -1.216409e-02 1.216409e-02 0.9999 -6.6165 2.3362)" class="st3" width="1.9" height="97.6"/>
	<polygon class="st3" points="176.3,490.5 159.2,483.9 261.8,467.6 278.9,474.1 	"/>
	
		<rect x="140.5" y="491.7" transform="matrix(0.3955 -0.9185 0.9185 0.3955 -378.4901 435.2489)" class="st3" width="1.9" height="26.9"/>
	
		<rect x="151.6" y="522.5" transform="matrix(0.3955 -0.9185 0.9185 0.3955 -400.0095 464.049)" class="st1" width="1.9" height="26.9"/>
</g>
<g>
	
		<rect x="379.9" y="401.7" transform="matrix(0.3955 -0.9185 0.9185 0.3955 -149.5035 599.5172)" class="st4" width="1.6" height="23.2"/>
	
		<rect x="389.5" y="428.2" transform="matrix(0.3955 -0.9185 0.9185 0.3955 -167.9749 624.3752)" class="st2" width="1.6" height="23.2"/>
	<path id="af1e2e82-f248-43bd-a869-489ddf745161-219" class="st5" d="M398.5,398.2c4.7-2.2,6.7-7.8,4.5-12.5c-0.2-0.5-0.5-1-0.8-1.4
		l11.4-18.1l-9.3-9.6l-15.8,25.8c-4,3.3-4.7,9.2-1.4,13.3C389.9,399.1,394.6,400.1,398.5,398.2L398.5,398.2z"/>
	<g>
		<path id="abb48a01-b3b6-4bc9-9e6f-5cc93133d8eb-208" class="st6" d="M447.3,272.5h57V242c0-15.7-12.8-28.5-28.5-28.5
			s-28.5,12.8-28.5,28.5V272.5z"/>
		<path id="f1b40e10-dbea-4491-93e9-bf21ee1afe95-209" class="st5" d="M421.9,611.8h-12.3l-5.8-47.3h18.1L421.9,611.8z"/>
		<path id="f19e2682-d3fb-40a9-8809-be7b68a78ac9-210" class="st6" d="M425,607.8h-24.1c-8.5,0-15.4,6.9-15.4,15.4v0.5H425V607.8z"
			/>
		<path id="b3618d44-3857-42e4-aed2-10e127155f21-211" class="st5" d="M568.4,595.5l-10.7,6l-28.3-38.3l15.8-8.9L568.4,595.5z"/>
		<path id="a172411a-a77d-4e4f-ac70-c8342021cfb1-212" class="st6" d="M569.2,590.5l-21,11.9l0,0c-7.4,4.2-10,13.6-5.8,21l0.2,0.4
			l34.4-19.4L569.2,590.5z"/>
		<path id="bd1532c7-07e2-44c0-82ff-fc8e0d37942d-213" class="st6" d="M490.1,399.2l0.9,4.7c0,0,2.8,2.8,1.4,4.3s-0.9,8-0.9,8
			c0.8,12.1,16.6,79.9,19.4,93.2c0,0,21.8,14.2,38.8,42.1s17.5,35,17.5,35l-18.9,8L501,537.3c0,0-13.2-8-18-15.1
			s-34.1-80.4-34.1-80.4l-16.6,76.6c0,0,0.9,27.9-3.3,45.9c-2.6,11.3-4.2,22.9-4.7,34.5l-22.2-2.4c0,0,1.4-67.2,3.8-74.3
			c0,0-9.9-81.8,9.9-114.5l16-42.7l15.7-6L490.1,399.2z"/>
		<path id="e2a54528-859f-4f0e-9aca-6130773a8d3b-214" class="st7" d="M476.1,221c-29.8,0.5-29.8,44.9,0,45.4
			C506,265.9,506,221.5,476.1,221z"/>
		<path id="aeace49c-5333-476f-965d-52da8fac2318-215" class="st6" d="M453.1,242.5h5.1l1.4-3.5l-0.7,3.5h27.7l-0.9-7.2l6.7,7.2h6.7
			v-3.9c0-12.7-10.3-23-23-23.1c-12.7,0-23,10.3-23.1,23l0,0l0,0L453.1,242.5z"/>
		<path id="aa5a3aa9-e50b-4b43-b42d-0c1415925835-216" class="st3" d="M445.3,279.6l56.4,0.5L489.8,401c0,0-66-3.5-66-23.6l6.2-17.9
			L445.3,279.6z"/>
		<path id="aca4d347-909c-4b66-b72e-6bb1477aee43-217" class="st5" d="M504.2,412.7c-3.3-4-2.7-9.9,1.3-13.2
			c0.4-0.3,0.9-0.7,1.4-0.9l-2.5-21.3l12.6-4.6l3,30.1c2.2,4.7,0.2,10.3-4.5,12.5C511.6,417.1,506.9,416.1,504.2,412.7z"/>
		<path id="eab38d24-ad2d-4cbe-aaaa-db975580c866-218" class="st3" d="M494.3,290.5l7.4-10.4c0,0,5.1-1.1,11.1,5.9
			s9.5,94.5,9.5,94.5l-22,5l-13-62L494.3,290.5z"/>
		<polygon class="st1" points="370,385.4 371.6,463.1 422,489.7 513.6,473.4 515.9,392.5 457.8,372.1 		"/>
		<path class="st4" d="M421.8,490.6l-51-26.9l-1.7-78.9l88.7-13.4l0.2,0.1l58.7,20.7l-2.3,82L421.8,490.6z M372.4,462.6l49.7,26.2
			l90.7-16.2L515,393l-57.4-20.2L370.7,386L372.4,462.6z"/>
		<polygon class="st4" points="420.8,406.5 420.6,406.4 369.7,386.1 370.3,384.6 421,404.8 515.8,391.8 516,393.3 		"/>
		
			<rect x="420.6" y="405.6" transform="matrix(0.9999 -1.216409e-02 1.216409e-02 0.9999 -5.4139 5.1589)" class="st4" width="1.6" height="84.1"/>
		<polygon class="st4" points="414.4,402.4 396,395 484.4,380.9 502.8,388.4 		"/>
		<path id="ed6195a6-5e50-4e12-8380-54bfefa6b2ae-220" class="st3" d="M454,284.4l-8.2-5.4c0,0-6.3,1.4-13,14.3S399,364,399,364
			l11.1,11.3l29.7-45.3L454,284.4z"/>
	</g>
</g>
</svg>
