<svg id="Capa_1" data-name="Capa 1" xmlns="http://www.w3.org/2000/svg" viewBox="0 0 229.52 187.19"><defs><style>.cls-1{fill:#f39200;}.cls-2{fill:#e94e1b;}</style></defs><path class="cls-1" d="M127.75,60.07q0,10.46-3.65,17.34-4.17,7.89-14.61,7.9c-.53,0-1.29,0-2.29-.06H105q-11.73,0-14-.85c-.61-.23-.92-.82-.92-1.77q0-6.07.4-18.41t.4-18.47q0-6.59-.39-24.78-.09-4.65-.34-14l0-.79a1.17,1.17,0,0,1,1-1.31,60.58,60.58,0,0,1,7.36-.23q10.13,0,11.84.12,7.81.51,11.53,4.54,4.93,5.4,4.93,18.25a24.15,24.15,0,0,1-1.15,7.1A35.14,35.14,0,0,1,123.46,40a12,12,0,0,1-1.17,2.16c0,.27.27.68.82,1.25,1.49,1.52,2.65,3.92,3.5,7.22A37.72,37.72,0,0,1,127.75,60.07Zm-13.66-32q0-4.89-2.73-6.48a10.85,10.85,0,0,0-5-.85c-2.28,0-3.43.3-3.43.91s0,1.81-.11,3.26-.11,2.55-.11,3.27q0,5.68.54,6.37c.23.34,1.58.51,4,.51Q114.1,35.07,114.09,28.08Zm1,31.77q0-5.12-2.39-6.94c-1-.76-2.66-1.13-5-1.13-2.73,0-4.21.18-4.45.54s-.35,2.68-.35,7q0,6.7.42,7.41c.27.48,1.8.71,4.57.71q3.43,0,4.83-1C114.27,65.34,115.05,63.14,115.05,59.85Z" transform="translate(-89.6 -4.66)"/><path class="cls-1" d="M164.25,33q0,4.2-.23,12.61T163.8,58.2q0,4.09.16,12.27t.16,12.22c0,1-.27,1.67-.79,1.93a14.47,14.47,0,0,1-5.12.57,22.82,22.82,0,0,1-4.83-.34c-.4-.11-.65-.57-.76-1.36-.06-1.14-.13-2.28-.19-3.41-.11-1.75-.25-2.62-.44-2.62q.44,0-3.21,3.87t-6.64,3.86q-8.41,0-10-13.58a177.84,177.84,0,0,1-.7-18.3,139.65,139.65,0,0,1,1.17-20.46c.24-1.55.67-2.33,1.31-2.33q1.45,0,4.44.06c2,0,3.47.05,4.45.05.65,0,1,.5,1,1.48q0,.41-.06,1.2Q143.1,41,143.09,49q0,9.88.35,13.53.57,6.25,4.16,6.25c.93,0,2-.74,3-2.22a8.09,8.09,0,0,0,1.7-4.6q.06-2.1.06-28.53a8,8,0,0,1,.16-2.22c.12-.38.51-.57,1.14-.57,1,0,2.6,0,4.69.06s3.64.06,4.68.06a1,1,0,0,1,1.11.85A9.28,9.28,0,0,1,164.25,33Z" transform="translate(-89.6 -4.66)"/><path class="cls-1" d="M200.68,44.1a130.72,130.72,0,0,1-.38,13.42q-.48,2.83-7,20.57-1,2.77-5.24,12.9c-3.11,7.42-4.88,11.35-5.3,11.76q-.77.85-9.76.86a2.37,2.37,0,0,1-1.84-.57c-.27-1.56-.62-3.39-1-5.52l-1-4a20.76,20.76,0,0,1-.73-3.92q0-1.08.54-1.08,8.82,0,8.83-7.22c0-.42-1.44-4.18-4.32-11.31Q169,59,168.53,56.1q-.25-1.65-.25-11.77,0-2,.06-6.17c0-2.74.07-4.8.07-6.16,0-1,.35-1.48,1.05-1.48,1.08,0,2.71.06,4.9.17s3.83.17,4.91.17c.44,0,.67.59.67,1.76s0,2.67-.1,4.81-.09,3.74-.09,4.8q0,7.16.12,9.72a34.17,34.17,0,0,0,1.91,7.38C183.05,63.09,184,65,184.54,65s1.31-1.86,2.48-5.57a40.91,40.91,0,0,0,1.75-7.1c.21-3.34.31-6.95.31-10.86,0-1-.05-2.57-.15-4.66s-.16-3.65-.16-4.71q0-1.08.66-1.08c1.08,0,2.7-.08,4.85-.23s3.76-.23,4.84-.23c.55,0,.92.49,1.11,1.48A95.77,95.77,0,0,1,200.68,44.1Z" transform="translate(-89.6 -4.66)"/><path class="cls-2" d="M154.43,187.66c0,1-.14,1.59-.43,1.82a3,3,0,0,1-1.35.35,62.8,62.8,0,0,1-8.31.42q-7.59,0-8.91-.42a1.79,1.79,0,0,1-1.33-1.89q0-5.52.36-16.59t.36-16.59c0-1.81-.35-2.86-1.06-3.14q-1.65-.56-11.69-.56t-11.79.56c-.71.23-1.06,1.28-1.06,3.14q0,5.46.24,16.31t.24,16.31c0,1.4-.44,2.21-1.3,2.45-1,.28-4.06.42-9.09.42a48.6,48.6,0,0,1-8.31-.42c-.93-.24-1.4-1-1.4-2.17q0-7.54.51-22.77t.51-22.84q0-8.1-.49-24.34t-.48-24.34c0-1,.34-1.54,1-1.54,1,0,2.5.07,4.51.21s3.52.21,4.52.21,2.58-.07,4.66-.21,3.63-.21,4.66-.21c.55,0,.82.42.82,1.26q0,5.23-.53,15.68t-.53,15.68c0,1.63.31,2.58.92,2.86q1.26.57,12.37.56,10.34,0,12-.56c.77-.28,1.16-1.23,1.16-2.86q0-5-.34-15.19T134.53,94c0-1.44.4-2.16,1.21-2.16s2.36.07,4.27.21,3.36.21,4.33.21,2.36-.07,4.27-.21,3.36-.21,4.33-.21,1.4.56,1.4,1.68q0,8-.46,24.23t-.46,24.31q0,7.62.51,22.84T154.43,187.66Z" transform="translate(-89.6 -4.66)"/><path class="cls-2" d="M207.24,151.9q0,7-3.14,8c-.36.09-3.69.61-10,1.54q-5.7.9-17,2.16a9.73,9.73,0,0,0,4.11,6.92,10.89,10.89,0,0,0,6.38,1.95,14.13,14.13,0,0,0,8.64-3.35l3.67-3.35c.68.46,1.82,2.84,3.41,7.12s2.39,7,2.39,8.18a3.69,3.69,0,0,1-.72,1.6q-5.9,9.15-18.31,9.15-11.5,0-18.55-9.71-7.25-9.84-7.25-26.33,0-16.06,6.47-26.33Q174,118.86,185,118.86q9.28,0,15.75,9.78T207.24,151.9Zm-16.91-4.26A13.69,13.69,0,0,0,188.2,140c-1.41-2.18-3.11-3.28-5.07-3.28s-3.7,1.24-5,3.7a16.71,16.71,0,0,0-1.84,8c0,1.25.45,1.88,1.35,1.88a59.44,59.44,0,0,0,11.11-1.6C189.8,148.52,190.33,148.15,190.33,147.64Z" transform="translate(-89.6 -4.66)"/><path class="cls-2" d="M244.58,146.31c0,1.82-.69,2.73-2.08,2.73-.61,0-1.5-.06-2.68-.18s-2-.17-2.63-.17q-4,0-5.46,1.81t-1.45,7.34c0,2,0,5,.07,9.11s.08,7.11.08,9.12q0,2,.19,6t.19,6a1.68,1.68,0,0,1-1.59,1.89,66.84,66.84,0,0,1-7.1.28,51,51,0,0,1-7.35-.42q-1.59-.29-1.59-2.31,0-5.58,0-16.73t.05-16.73q0-16.41-2.08-27a6.51,6.51,0,0,1-.1-1,1.38,1.38,0,0,1,.73-1.39q2.65-.42,7.77-1.54,7.64-2.16,7.88-2.16c.58,0,1,1.46,1.11,4.4s.45,4.4.87,4.4c-.45,0,.87-1.23,4-3.67s6.07-3.67,8.94-3.67q2.7,0,2.7,1.68c0,1.35-.09,3.26-.29,5.73q-.28,4-.33,5.72c0,1.36,0,3.15,0,5.38C244.55,143.61,244.58,145.43,244.58,146.31Z" transform="translate(-89.6 -4.66)"/><path class="cls-2" d="M294.49,151.9q0,7-3.15,8c-.35.09-3.68.61-10,1.54q-5.7.9-17,2.16a9.73,9.73,0,0,0,4.11,6.92,10.86,10.86,0,0,0,6.37,1.95,14.13,14.13,0,0,0,8.65-3.35l3.67-3.35c.68.46,1.81,2.84,3.41,7.12s2.39,7,2.39,8.18a3.69,3.69,0,0,1-.72,1.6q-5.89,9.15-18.31,9.15-11.51,0-18.56-9.71-7.24-9.84-7.24-26.33,0-16.06,6.47-26.33,6.67-10.62,17.68-10.62,9.28,0,15.75,9.78T294.49,151.9Zm-16.91-4.26a13.69,13.69,0,0,0-2.13-7.62c-1.42-2.18-3.11-3.28-5.07-3.28s-3.7,1.24-5,3.7a16.83,16.83,0,0,0-1.83,8c0,1.25.45,1.88,1.35,1.88a59.55,59.55,0,0,0,11.11-1.6C277.05,148.52,277.58,148.15,277.58,147.64Z" transform="translate(-89.6 -4.66)"/><path class="cls-2" d="M319.12,108.73a169.75,169.75,0,0,1-1.59,23.89q-1.93,11.46-3.82,22.84c-.29,1.72-1.58,2.59-3.86,2.59q-3.92,0-4.35-2.24Q301,133.39,301,130.32q0-2.86.19-8.53t.19-8.52c0-2.09,0-5.24-.14-9.43s-.15-7.33-.15-9.43c0-1.72.29-2.58.88-2.58.9,0,2.25.09,4.05.28s3.16.28,4.06.28,2.25-.09,4.06-.28,3.16-.28,4.06-.28Q319.12,91.83,319.12,108.73Zm0,69.22a17.57,17.57,0,0,1-2.51,9.75,7.54,7.54,0,0,1-13.16,0A17.66,17.66,0,0,1,301,178a17.11,17.11,0,0,1,2.51-9.64,7.59,7.59,0,0,1,13.12,0A17,17,0,0,1,319.12,178Z" transform="translate(-89.6 -4.66)"/></svg>