<?xml version="1.0" encoding="utf-8"?>
<!-- Generator: Adobe Illustrator 25.2.1, SVG Export Plug-In . SVG Version: 6.00 Build 0)  -->
<svg version="1.1" id="Capa_1" xmlns="http://www.w3.org/2000/svg" xmlns:xlink="http://www.w3.org/1999/xlink" x="0px" y="0px"
	 viewBox="0 0 374.6 179.3" style="enable-background:new 0 0 374.6 179.3;" xml:space="preserve">
<style type="text/css">
	.st0{fill:#F39200;}
	.st1{fill:#E94E1B;}
	.st2{fill:#1D1D1B;}
</style>
<path class="st0" d="M45,66.2c0,8.3-1.5,15.2-4.4,20.7c-3.3,6.3-9.2,9.4-17.5,9.4c-0.6,0-1.5,0-2.7-0.1h-2.7c-9.3,0-14.9-0.3-16.7-1
	C0.4,95,0,94.2,0,93.1c0-4.8,0.2-12.2,0.5-22s0.5-17.2,0.5-22c0-5.2-0.2-15.1-0.5-29.6c-0.1-3.7-0.2-9.3-0.4-16.7V1.9
	C0,1.1,0.5,0.4,1.3,0.3C4.2,0.1,7.1,0,10.1,0c8.1,0,12.8,0,14.2,0.1C30.5,0.6,35.1,2.4,38,5.6c3.9,4.3,5.8,11.5,5.8,21.7
	c0,2.9-0.5,5.7-1.4,8.5c-0.7,2.2-1.5,4.3-2.6,6.4c-0.4,0.9-0.9,1.8-1.4,2.6c0,0.3,0.3,0.8,1,1.5c1.8,1.8,3.2,4.7,4.2,8.6
	C44.6,58.6,45.1,62.4,45,66.2z M28.7,28c0-3.9-1.1-6.5-3.3-7.7c-1.2-0.7-3.2-1-6-1c-2.7,0-4.1,0.4-4.1,1.1s0,2.2-0.1,3.9
	s-0.1,3-0.1,3.9c0,4.5,0.2,7.1,0.6,7.6c0.3,0.4,1.9,0.6,4.8,0.6C26,36.3,28.7,33.5,28.7,28z M29.8,65.9c0-4.1-1-6.8-2.8-8.3
	c-1.2-0.9-3.2-1.4-5.9-1.4c-3.3,0-5,0.2-5.3,0.6c-0.3,0.4-0.4,3.2-0.4,8.3c0,5.3,0.2,8.3,0.5,8.8c0.3,0.6,2.2,0.8,5.5,0.8
	c2.7,0,4.7-0.4,5.8-1.2C28.9,72.5,29.8,69.8,29.8,65.9z"/>
<path class="st0" d="M88.7,33.8c0,3.3-0.1,8.4-0.3,15.1s-0.3,11.7-0.3,15.1c0,3.3,0.1,8.1,0.2,14.7c0.1,6.5,0.2,11.4,0.2,14.6
	c0,1.2-0.3,2-1,2.3c-1,0.5-3,0.7-6.1,0.7c-1.9,0.1-3.9-0.1-5.8-0.4c-0.5-0.1-0.8-0.7-0.9-1.6c-0.1-1.4-0.2-2.7-0.2-4.1
	c-0.1-2.1-0.3-3.1-0.5-3.1c0.4,0-0.9,1.5-3.8,4.6s-5.5,4.6-7.9,4.6c-6.7,0-10.7-5.4-11.9-16.2c-0.6-7.3-0.9-14.6-0.8-21.8
	c-0.1-8.2,0.3-16.3,1.4-24.4c0.3-1.8,0.8-2.8,1.6-2.8c1.2,0,2.9,0,5.3,0.1s4.2,0.1,5.3,0.1c0.8,0,1.2,0.6,1.2,1.8
	c0,0.3,0,0.8-0.1,1.4c-0.5,6.1-0.8,12.4-0.8,18.7c0,7.9,0.1,13.2,0.4,16.2c0.5,5,2.1,7.5,5,7.5c1.1,0,2.3-0.9,3.6-2.7
	c1.2-1.6,1.9-3.5,2-5.5c0-1.7,0.1-13,0.1-34.1c-0.1-0.9,0-1.8,0.2-2.7c0.2-0.5,0.6-0.7,1.4-0.7c1.2,0,3.1,0,5.6,0.1
	c2.5,0,4.4,0.1,5.6,0.1c0.6-0.1,1.2,0.4,1.3,1C88.7,32.7,88.7,33.2,88.7,33.8z"/>
<path class="st0" d="M132.3,47.1c0,8.8-0.2,14.1-0.5,16c-0.4,2.3-3.1,10.5-8.3,24.6c-0.8,2.2-2.9,7.4-6.3,15.4
	c-3.7,8.9-5.8,13.5-6.3,14c-0.6,0.7-4.5,1-11.7,1c-0.8,0.1-1.6-0.2-2.2-0.7c-0.3-1.9-0.8-4.1-1.2-6.6c-0.4-1.6-0.8-3.2-1.2-4.8
	c-0.4-1.5-0.7-3.1-0.9-4.7c0-0.9,0.2-1.3,0.6-1.3c7,0,10.6-2.9,10.6-8.6c0-0.5-1.7-5-5.2-13.5c-3.6-8.7-5.5-14.2-5.9-16.6
	c-0.2-1.3-0.3-6-0.3-14c0-1.6,0-4.1,0.1-7.4c0-3.3,0.1-5.7,0.1-7.4c0-1.2,0.4-1.8,1.2-1.8c1.3,0,3.2,0.1,5.9,0.2
	c2.6,0.1,4.6,0.2,5.9,0.2c0.5,0,0.8,0.7,0.8,2.1s0,3.2-0.1,5.7s-0.1,4.5-0.1,5.7c0,5.7,0,9.6,0.2,11.6c0.1,1.6,0.8,4.5,2.3,8.8
	c1.5,4.5,2.6,6.7,3.3,6.7c0.6,0,1.6-2.2,3-6.7c0.9-2.8,1.6-5.6,2.1-8.5c0.3-4,0.4-8.3,0.4-13c0-1.2-0.1-3.1-0.2-5.6
	s-0.2-4.4-0.2-5.6c0-0.9,0.3-1.3,0.8-1.3c1.3,0,3.2-0.1,5.8-0.3s4.5-0.3,5.8-0.3c0.7,0,1.1,0.6,1.3,1.8
	C132.1,34.7,132.3,39.5,132.3,47.1z"/>
<path class="st1" d="M209.9,113.1c0,1.1-0.1,1.8-0.4,2c-0.4,0.3-0.9,0.4-1.4,0.4c-2.8,0.4-5.5,0.5-8.3,0.5c-5.1,0-8-0.2-8.9-0.5
	c-0.9-0.3-1.4-1.2-1.3-2.1c0-4.1,0.1-10.3,0.4-18.6s0.4-14.4,0.3-18.5c0-2-0.4-3.2-1.1-3.5c-1.1-0.4-5-0.6-11.7-0.6
	s-10.6,0.2-11.8,0.6c-0.7,0.3-1.1,1.4-1.1,3.5c0,4.1,0.1,10.2,0.2,18.3s0.2,14.2,0.2,18.3c0,1.6-0.4,2.5-1.3,2.7
	c-1,0.3-4.1,0.5-9.1,0.5c-2.8,0.1-5.6,0-8.3-0.5c-0.9-0.3-1.4-1.1-1.4-2.4c0-5.6,0.2-14.1,0.5-25.5s0.5-19.9,0.5-25.6
	c0-6.1-0.2-15.1-0.5-27.3c-0.3-12.1-0.5-21.2-0.5-27.3c0-1.1,0.3-1.7,1-1.7c1,0,2.5,0.1,4.5,0.2s3.5,0.2,4.5,0.2s2.6-0.1,4.7-0.2
	s3.6-0.2,4.7-0.2c0.6,0,0.8,0.5,0.8,1.4c0,3.9-0.2,9.8-0.5,17.6s-0.5,13.7-0.5,17.5c0,1.8,0.3,2.9,0.9,3.2c0.8,0.4,5,0.6,12.4,0.6
	c6.9,0,10.9-0.2,12-0.6c0.8-0.3,1.2-1.4,1.2-3.2c0-3.8-0.1-9.4-0.3-17c-0.2-7.6-0.3-13.3-0.3-17.1c0-1.6,0.4-2.4,1.2-2.4
	s2.4,0.1,4.3,0.2s3.4,0.2,4.3,0.2s2.4-0.1,4.3-0.2s3.4-0.2,4.3-0.2s1.4,0.6,1.4,1.9c0,6-0.2,15.1-0.5,27.2s-0.5,21.2-0.5,27.2
	c0,5.7,0.2,14.2,0.5,25.6S209.9,107.5,209.9,113.1z"/>
<path class="st1" d="M262.7,73.1c0,5.3-1,8.3-3.1,9c-0.4,0.1-3.7,0.7-10,1.7c-3.8,0.7-9.5,1.5-17,2.4c0.3,3,1.7,5.8,4.1,7.8
	c1.8,1.4,4.1,2.2,6.4,2.2c2.9,0,5.7-1.3,8.6-3.8c1.2-1.2,2.5-2.5,3.7-3.8c0.7,0.5,1.8,3.2,3.4,8s2.4,7.8,2.4,9.2
	c-0.1,0.6-0.3,1.3-0.7,1.8c-3.9,6.8-10,10.3-18.3,10.3c-7.7,0-13.9-3.6-18.6-10.9c-4.8-7.3-7.2-17.2-7.2-29.5
	c0-12,2.2-21.8,6.5-29.5c4.4-7.9,10.3-11.9,17.7-11.9c6.2,0,11.4,3.7,15.8,11C260.6,54.4,262.7,63.1,262.7,73.1z M245.8,68.3
	c0.1-3-0.7-5.9-2.1-8.5c-1.4-2.4-3.1-3.7-5.1-3.7s-3.7,1.4-5,4.2c-1.3,2.8-1.9,5.9-1.8,9c0,1.4,0.4,2.1,1.4,2.1
	c3.8-0.2,7.5-0.8,11.1-1.8C245.3,69.3,245.8,68.9,245.8,68.3z"/>
<path class="st1" d="M300.1,66.8c0,2-0.7,3-2.1,3c-0.6,0-1.5-0.1-2.7-0.2c-0.9-0.1-1.8-0.2-2.6-0.2c-2.7,0-4.5,0.7-5.5,2
	c-1,1.3-1.5,4.1-1.5,8.2c0,2.2,0,5.7,0.1,10.2s0.1,8,0.1,10.2c0,1.5,0.1,3.8,0.2,6.8s0.2,5.2,0.2,6.7c0,1.3-0.5,2-1.6,2.1
	c-2.4,0.3-4.7,0.4-7.1,0.3c-2.5,0-4.9-0.1-7.4-0.5c-1.1-0.2-1.6-1.1-1.6-2.6c0-4.2,0-10.4,0-18.7s0-14.6,0-18.8
	c0-12.3-0.7-22.4-2.1-30.3c-0.1-0.4-0.1-0.8-0.1-1.2c-0.1-0.6,0.2-1.2,0.7-1.6c1.8-0.3,4.4-0.9,7.8-1.7c5.1-1.6,7.7-2.3,7.9-2.3
	c0.6,0,0.9,1.6,1.1,4.9c0.2,3.3,0.5,4.9,0.9,4.9c-0.5,0,0.9-1.4,4-4.1s6.1-4.1,8.9-4.1c1.8,0,2.7,0.6,2.7,1.9c0,1.5-0.1,3.7-0.3,6.4
	c-0.2,3-0.3,5.1-0.3,6.4c0,1.5,0,3.5,0,6C300,63.8,300.1,65.8,300.1,66.8z"/>
<path class="st1" d="M350,73.1c0,5.3-1,8.3-3.1,9c-0.4,0.1-3.7,0.7-10,1.7c-3.8,0.7-9.5,1.5-17,2.4c0.3,3,1.7,5.8,4.1,7.8
	c1.8,1.4,4.1,2.2,6.4,2.2c2.9,0,5.8-1.3,8.6-3.8c1.2-1.2,2.5-2.5,3.7-3.8c0.7,0.5,1.8,3.2,3.4,8s2.4,7.8,2.4,9.2
	c-0.1,0.6-0.3,1.3-0.7,1.8c-3.9,6.8-10,10.3-18.3,10.3c-7.7,0-13.9-3.6-18.6-10.9c-4.8-7.3-7.2-17.2-7.2-29.5
	c0-12,2.2-21.8,6.5-29.5c4.5-7.9,10.3-11.9,17.7-11.9c6.2,0,11.4,3.7,15.8,11C347.8,54.4,350,63.1,350,73.1z M333.1,68.3
	c0.1-3-0.7-5.9-2.1-8.5c-1.4-2.5-3.1-3.7-5.1-3.7c-2,0-3.7,1.4-5,4.2c-1.3,2.8-1.9,5.9-1.8,9c0,1.4,0.5,2.1,1.4,2.1
	c3.8-0.2,7.5-0.8,11.1-1.8C332.5,69.3,333.1,68.9,333.1,68.3z"/>
<path class="st1" d="M374.6,24.7c0,8.9-0.5,17.9-1.6,26.8c-1.3,8.6-2.6,17.1-3.8,25.6c-0.3,1.9-1.6,2.9-3.9,2.9
	c-2.6,0-4.1-0.8-4.4-2.5c-3-16.7-4.5-26.3-4.5-28.6c0-2.1,0.1-5.3,0.2-9.5s0.2-7.4,0.2-9.5c0-2.3,0-5.9-0.1-10.6s-0.1-8.2-0.1-10.6
	c0-1.9,0.3-2.9,0.9-2.9c0.9,0,2.3,0.1,4.1,0.3c1.3,0.2,2.7,0.3,4.1,0.3c1.4,0,2.7-0.1,4.1-0.3c1.8-0.2,3.2-0.3,4.1-0.3
	C374.3,5.8,374.6,12.1,374.6,24.7z M374.6,102.2c0.1,3.8-0.7,7.6-2.5,10.9c-1.7,2.9-3.9,4.3-6.6,4.3s-4.9-1.4-6.6-4.3
	c-1.8-3.4-2.6-7.2-2.5-11c-0.1-3.8,0.7-7.5,2.5-10.8c1.7-2.8,3.9-4.2,6.6-4.2s4.9,1.4,6.5,4.2C373.9,94.7,374.8,98.5,374.6,102.2z"
	/>
<path class="st2" d="M5.3,149.1c-1.1-0.8-1.9-1.9-2.4-3.2c-1.1-3.3-1.1-6.9,0-10.1c0.5-1.3,1.3-2.4,2.4-3.2c1.1-0.8,2.4-1.1,3.8-1.1
	c1.4,0,2.7,0.3,3.8,1.1c1.1,0.8,1.9,1.9,2.4,3.2c1.1,3.3,1.1,6.9,0,10.1c-0.5,1.3-1.3,2.4-2.4,3.2c-1.1,0.8-2.4,1.1-3.8,1.1
	C7.7,150.3,6.4,149.9,5.3,149.1z M11.8,146.9c0.8-0.6,1.4-1.4,1.8-2.4c0.4-1.2,0.6-2.5,0.6-3.7c0-1.3-0.2-2.6-0.6-3.8
	c-0.3-1-0.9-1.8-1.8-2.4C11,134,10,133.8,9,133.8c-1,0-2,0.3-2.8,0.8c-0.8,0.6-1.4,1.5-1.8,2.4c-0.4,1.2-0.6,2.5-0.6,3.8
	c0,1.3,0.2,2.5,0.6,3.7c0.3,0.9,0.9,1.8,1.8,2.4c0.8,0.6,1.8,0.8,2.8,0.8C10,147.8,11,147.5,11.8,146.9L11.8,146.9z M6.7,144.5
	c-0.7-1-1-2.3-0.9-3.5v-0.6C5.7,139.2,6,138,6.7,137c0.6-0.8,1.6-1.3,2.6-1.2c0.5,0,1.1,0.1,1.5,0.4c0.5,0.3,0.9,0.7,1.2,1.2
	l-1.1,1.9c-0.2-0.3-0.5-0.5-0.8-0.7c-0.2-0.2-0.5-0.2-0.8-0.2c-0.5,0-0.9,0.2-1.1,0.6c-0.3,0.5-0.4,1.1-0.4,1.6v0.6
	c0,0.6,0.1,1.2,0.4,1.7c0.2,0.4,0.7,0.6,1.1,0.6c0.3,0,0.6-0.1,0.9-0.3c0.3-0.2,0.6-0.5,0.9-0.9l1.1,1.9c-0.3,0.5-0.7,0.9-1.2,1.2
	c-0.5,0.3-1,0.4-1.6,0.4C8.3,145.8,7.3,145.4,6.7,144.5z"/>
<g>
	<g>
		<path class="st2" d="M21.8,147.3l5.6-10.7c0.3-0.5,0.5-1,0.6-1.5c0.1-0.5,0.2-1,0.2-1.4v0c0-0.6-0.1-1.1-0.4-1.5s-0.7-0.5-1.2-0.5
			c-0.5,0-0.9,0.2-1.2,0.7c-0.3,0.5-0.5,1.2-0.6,2.1v0h-3.2v0c0.1-1.5,0.3-2.7,0.7-3.8c0.4-1.1,1-1.9,1.7-2.4
			c0.7-0.6,1.6-0.8,2.5-0.8c1,0,1.9,0.2,2.6,0.7c0.7,0.5,1.3,1.2,1.7,2.1s0.6,2,0.6,3.3v0c0,1.1-0.1,2.1-0.4,3.2
			c-0.3,1.1-0.6,2-1.1,2.9l-4,7.3h5.6v4.3h-9.7V147.3z"/>
		<path class="st2" d="M35.3,149.8c-0.8-1.2-1.3-2.8-1.3-4.9v-10.7c0-2.1,0.4-3.8,1.3-4.9c0.8-1.2,2.1-1.8,3.7-1.8
			c1.6,0,2.8,0.6,3.7,1.8c0.8,1.2,1.3,2.8,1.3,5v10.7c0,2.1-0.4,3.8-1.3,4.9c-0.8,1.2-2.1,1.8-3.7,1.8
			C37.3,151.6,36.1,151,35.3,149.8z M40.3,146.4c0.3-0.6,0.4-1.5,0.4-2.6v-8.5c0-1.1-0.1-2-0.4-2.6c-0.3-0.6-0.8-0.9-1.4-0.9
			s-1.1,0.3-1.4,0.9c-0.3,0.6-0.4,1.5-0.4,2.6v8.5c0,1.1,0.1,2,0.4,2.6c0.3,0.6,0.8,0.9,1.4,0.9S40,147,40.3,146.4z"/>
		<path class="st2" d="M46.5,147.3l5.6-10.7c0.3-0.5,0.5-1,0.6-1.5c0.1-0.5,0.2-1,0.2-1.4v0c0-0.6-0.1-1.1-0.4-1.5s-0.7-0.5-1.2-0.5
			c-0.5,0-0.9,0.2-1.2,0.7c-0.3,0.5-0.5,1.2-0.6,2.1v0h-3.2v0c0.1-1.5,0.3-2.7,0.7-3.8c0.4-1.1,1-1.9,1.7-2.4
			c0.7-0.6,1.6-0.8,2.5-0.8c1,0,1.9,0.2,2.6,0.7c0.7,0.5,1.3,1.2,1.7,2.1s0.6,2,0.6,3.3v0c0,1.1-0.1,2.1-0.4,3.2
			c-0.3,1.1-0.6,2-1.1,2.9l-4,7.3h5.6v4.3h-9.7V147.3z"/>
		<path class="st2" d="M58.5,147.3l5.6-10.7c0.3-0.5,0.5-1,0.6-1.5c0.1-0.5,0.2-1,0.2-1.4v0c0-0.6-0.1-1.1-0.4-1.5s-0.7-0.5-1.2-0.5
			c-0.5,0-0.9,0.2-1.2,0.7c-0.3,0.5-0.5,1.2-0.6,2.1v0h-3.2v0c0.1-1.5,0.3-2.7,0.7-3.8c0.4-1.1,1-1.9,1.7-2.4
			c0.7-0.6,1.6-0.8,2.5-0.8c1,0,1.9,0.2,2.6,0.7c0.7,0.5,1.3,1.2,1.7,2.1s0.6,2,0.6,3.3v0c0,1.1-0.1,2.1-0.4,3.2
			c-0.3,1.1-0.6,2-1.1,2.9l-4,7.3h5.6v4.3h-9.7V147.3z"/>
		<path class="st2" d="M77.2,127.7h3.1v23.6h-3.1V127.7z M78.3,127.7h9.9v4.3h-9.9V127.7z M78.3,137.5H87v4.3h-8.6V137.5z
			 M78.3,147.1h9.9v4.3h-9.9V147.1z"/>
		<path class="st2" d="M92.9,150.7c-0.8-0.6-1.4-1.5-1.8-2.7c-0.4-1.2-0.6-2.6-0.6-4.2V142c0-1.6,0.2-3,0.6-4.2c0.4-1.2,1-2,1.8-2.6
			s1.7-0.9,2.9-0.9c0.6,0,1.2,0.1,1.8,0.3c0.6,0.2,1.1,0.5,1.5,0.9s0.8,0.9,1.1,1.5l-2,2.8c-0.3-0.4-0.6-0.7-1-0.9
			c-0.4-0.2-0.8-0.3-1.2-0.3c-0.8,0-1.4,0.3-1.8,0.9c-0.4,0.6-0.6,1.4-0.6,2.5v1.8c0,1.1,0.2,2,0.6,2.6c0.4,0.6,1,0.9,1.8,0.9
			c0.4,0,0.8-0.1,1.2-0.3c0.4-0.2,0.7-0.6,1-1l2,3c-0.3,0.6-0.7,1-1.1,1.4c-0.5,0.4-1,0.7-1.5,0.9c-0.6,0.2-1.2,0.3-1.8,0.3
			C94.6,151.6,93.7,151.3,92.9,150.7z"/>
		<path class="st2" d="M104.3,150.7c-0.8-0.6-1.3-1.4-1.7-2.5c-0.4-1.1-0.6-2.4-0.6-4v-2.7c0-1.5,0.2-2.8,0.6-3.9
			c0.4-1.1,1-1.9,1.7-2.5c0.8-0.6,1.7-0.9,2.7-0.9c1.1,0,2,0.3,2.7,0.9c0.8,0.6,1.3,1.4,1.7,2.5c0.4,1.1,0.6,2.4,0.6,3.9v2.8
			c0,1.5-0.2,2.9-0.6,3.9c-0.4,1.1-1,1.9-1.7,2.5c-0.8,0.6-1.7,0.9-2.7,0.9C106,151.6,105,151.3,104.3,150.7z M108.5,146.5
			c0.3-0.5,0.5-1.3,0.5-2.2v-2.8c0-0.9-0.2-1.7-0.5-2.2c-0.3-0.5-0.8-0.8-1.5-0.8c-0.6,0-1.1,0.3-1.4,0.8c-0.3,0.5-0.5,1.2-0.5,2.2
			v2.8c0,1,0.2,1.7,0.5,2.2c0.3,0.5,0.8,0.8,1.4,0.8C107.6,147.3,108.1,147,108.5,146.5z"/>
		<path class="st2" d="M114.9,134.5h3.1v16.9h-3.1V134.5z M121.7,141.6c0-1-0.2-1.7-0.5-2.3c-0.3-0.5-0.8-0.8-1.4-0.8
			c-0.6,0-1,0.2-1.3,0.7c-0.3,0.5-0.5,1.1-0.5,1.9l-0.2-3.7c0.3-1,0.8-1.8,1.3-2.4c0.5-0.5,1.1-0.8,1.8-0.8c0.8,0,1.5,0.3,2.1,0.9
			s1,1.4,1.3,2.5c0.3,1.1,0.5,2.4,0.5,4v9.7h-3.1V141.6z M128.6,141.6c0-1-0.2-1.7-0.5-2.3c-0.3-0.5-0.8-0.8-1.4-0.8
			c-0.6,0-1.1,0.3-1.4,0.8c-0.3,0.5-0.5,1.2-0.5,2.2l-0.6-3.9c0.4-1.1,0.8-1.9,1.4-2.5c0.6-0.6,1.2-0.9,2-0.9c0.8,0,1.6,0.3,2.2,0.9
			s1.1,1.4,1.4,2.5c0.3,1.1,0.5,2.4,0.5,4v9.7h-3.1V141.6z"/>
		<path class="st2" d="M134.7,134.5h3.1v16.9h-3.1V134.5z M141.5,141.6c0-1-0.2-1.7-0.5-2.3c-0.3-0.5-0.8-0.8-1.4-0.8
			c-0.6,0-1,0.2-1.3,0.7c-0.3,0.5-0.5,1.1-0.5,1.9l-0.2-3.7c0.3-1,0.8-1.8,1.3-2.4c0.5-0.5,1.1-0.8,1.8-0.8c0.8,0,1.5,0.3,2.1,0.9
			s1,1.4,1.3,2.5c0.3,1.1,0.5,2.4,0.5,4v9.7h-3.1V141.6z M148.4,141.6c0-1-0.2-1.7-0.5-2.3c-0.3-0.5-0.8-0.8-1.4-0.8
			c-0.6,0-1.1,0.3-1.4,0.8c-0.3,0.5-0.5,1.2-0.5,2.2l-0.6-3.9c0.4-1.1,0.8-1.9,1.4-2.5c0.6-0.6,1.2-0.9,2-0.9c0.8,0,1.6,0.3,2.2,0.9
			s1.1,1.4,1.4,2.5c0.3,1.1,0.5,2.4,0.5,4v9.7h-3.1V141.6z"/>
		<path class="st2" d="M156.6,150.7c-0.8-0.6-1.4-1.5-1.8-2.6c-0.4-1.1-0.6-2.5-0.6-4.1v-1.9c0-1.7,0.2-3.1,0.6-4.3
			c0.4-1.2,1-2.1,1.8-2.7s1.7-0.9,2.8-0.9c1,0,1.9,0.4,2.6,1.1s1.3,1.8,1.7,3.2c0.4,1.4,0.6,3.1,0.6,5.1v1.1h-8v-3h5.2l0-0.4
			c-0.1-1-0.3-1.7-0.6-2.3c-0.3-0.5-0.8-0.8-1.4-0.8c-0.7,0-1.3,0.3-1.7,1s-0.6,1.5-0.6,2.7v2.1c0,1.1,0.2,2,0.7,2.7
			c0.4,0.6,1.1,0.9,1.9,0.9c0.4,0,0.8-0.1,1.2-0.3c0.4-0.2,0.8-0.5,1.1-0.9l2,2.6c-0.6,0.8-1.3,1.4-2.1,1.9
			c-0.8,0.4-1.5,0.7-2.3,0.7C158.4,151.6,157.4,151.3,156.6,150.7z"/>
		<path class="st2" d="M166.9,134.5h3.3v16.9h-3.3V134.5z M172.9,138.7c-0.2-0.1-0.5-0.2-0.8-0.2c-0.6,0-1.1,0.3-1.5,0.9
			c-0.3,0.6-0.5,1.4-0.5,2.4l-0.2-4.4c0.3-1,0.7-1.8,1.3-2.3s1.1-0.8,1.7-0.8c0.5,0,0.9,0.1,1.3,0.3c0.4,0.2,0.7,0.5,1,1l-1.8,3.6
			C173.3,139,173.2,138.8,172.9,138.7z"/>
		<path class="st2" d="M178.9,150.7c-0.8-0.6-1.4-1.5-1.8-2.7s-0.6-2.6-0.6-4.2V142c0-1.6,0.2-3,0.6-4.2s1-2,1.8-2.6
			c0.8-0.6,1.7-0.9,2.9-0.9c0.6,0,1.2,0.1,1.8,0.3c0.6,0.2,1.1,0.5,1.5,0.9s0.8,0.9,1.1,1.5l-2,2.8c-0.3-0.4-0.6-0.7-1-0.9
			c-0.4-0.2-0.8-0.3-1.2-0.3c-0.8,0-1.4,0.3-1.8,0.9c-0.4,0.6-0.6,1.4-0.6,2.5v1.8c0,1.1,0.2,2,0.6,2.6c0.4,0.6,1,0.9,1.8,0.9
			c0.4,0,0.8-0.1,1.2-0.3c0.4-0.2,0.7-0.6,1-1l2,3c-0.3,0.6-0.7,1-1.1,1.4c-0.5,0.4-1,0.7-1.5,0.9c-0.6,0.2-1.2,0.3-1.8,0.3
			C180.6,151.6,179.6,151.3,178.9,150.7z"/>
		<path class="st2" d="M190.4,150.7c-0.8-0.6-1.4-1.5-1.8-2.6c-0.4-1.1-0.6-2.5-0.6-4.1v-1.9c0-1.7,0.2-3.1,0.6-4.3s1-2.1,1.8-2.7
			s1.7-0.9,2.8-0.9c1,0,1.9,0.4,2.6,1.1c0.7,0.7,1.3,1.8,1.7,3.2s0.6,3.1,0.6,5.1v1.1h-8v-3h5.2l0-0.4c-0.1-1-0.3-1.7-0.6-2.3
			c-0.3-0.5-0.8-0.8-1.4-0.8c-0.7,0-1.3,0.3-1.7,1c-0.4,0.6-0.6,1.5-0.6,2.7v2.1c0,1.1,0.2,2,0.7,2.7c0.4,0.6,1.1,0.9,1.9,0.9
			c0.4,0,0.8-0.1,1.2-0.3c0.4-0.2,0.8-0.5,1.1-0.9l2,2.6c-0.6,0.8-1.3,1.4-2.1,1.9c-0.8,0.4-1.5,0.7-2.3,0.7
			C192.2,151.6,191.2,151.3,190.4,150.7z"/>
		<path class="st2" d="M206.9,127.7h3.1v23.6h-3.1V127.7z M210.9,150.8c-0.5-0.5-0.9-1.2-1.1-2.1l0.2-3.9c0,0.6,0.1,1,0.2,1.4
			c0.1,0.4,0.3,0.7,0.6,0.9c0.3,0.2,0.6,0.3,0.9,0.3c0.6,0,1-0.3,1.3-0.8c0.3-0.6,0.5-1.3,0.5-2.3v-2.7c0-1-0.2-1.8-0.5-2.4
			c-0.3-0.6-0.8-0.9-1.3-0.9c-0.4,0-0.7,0.1-0.9,0.3s-0.5,0.5-0.6,0.9c-0.1,0.4-0.2,0.9-0.2,1.5l-0.2-3.7c0.3-1,0.7-1.7,1.2-2.3
			s1.1-0.8,1.7-0.8c0.8,0,1.5,0.3,2.1,0.9s1,1.4,1.3,2.5c0.3,1.1,0.5,2.4,0.5,4v2.7c0,1.5-0.2,2.9-0.5,3.9c-0.3,1.1-0.8,1.9-1.3,2.5
			s-1.3,0.9-2.1,0.9C212,151.6,211.4,151.3,210.9,150.8z"/>
		<path class="st2" d="M218.2,134.5h2.9l3.9,14.7l-2,3.6L218.2,134.5z M229,134.5l-5.2,20.8c-0.2,0.8-0.4,1.4-0.7,1.8
			c-0.3,0.4-0.6,0.8-1.1,1c-0.4,0.2-1,0.3-1.6,0.3h-0.7v-4.3h0.7c0.3,0,0.6-0.1,0.8-0.3c0.2-0.2,0.4-0.6,0.5-1l4.3-18.2H229z"/>
		<path class="st2" d="M240.6,156.2c-1.3-0.9-2.3-2.2-2.9-4c-0.7-1.8-1-4-1-6.7c0-0.7,0-1.5,0-2.2s0-1.5,0-2.2c0-2.9,0.4-5.4,1-7.3
			c0.7-1.9,1.6-3.4,2.9-4.4s2.9-1.4,4.9-1.4c1.9,0,3.5,0.5,4.8,1.5c1.3,1,2.3,2.4,2.9,4.4c0.7,1.9,1,4.4,1,7.3v5.1
			c0,1.9-0.3,3.3-0.9,4.1c-0.6,0.9-1.4,1.3-2.5,1.3c-1.2,0-2.2-0.4-2.8-1.3s-0.9-2.1-0.9-3.8l2.6-0.1c0,0.6,0.1,1,0.2,1.3
			s0.4,0.4,0.7,0.4c0.3,0,0.5-0.1,0.6-0.4s0.2-0.7,0.2-1.3v-5.4c0-2.1-0.2-3.8-0.7-5.2s-1.1-2.5-2-3.2c-0.9-0.7-2-1.1-3.3-1.1
			c-1.3,0-2.5,0.3-3.4,1s-1.6,1.7-2,3.1c-0.5,1.4-0.7,3.2-0.7,5.3c0,0.7,0,1.5,0,2.2s0,1.5,0,2.2c0,1.9,0.2,3.5,0.7,4.7
			c0.5,1.3,1.1,2.2,2,2.8c0.9,0.6,2,0.9,3.4,0.9h3.4v3.6h-3.4C243.6,157.6,241.9,157.1,240.6,156.2z M242.2,149.8
			c-0.6-1.2-0.9-3-0.9-5.5v-2.8c0-2.4,0.4-4.3,1.1-5.5c0.7-1.2,1.8-1.8,3.2-1.8c1.4,0,2.5,0.6,3.2,1.8c0.7,1.2,1.1,3,1.1,5.5v5.2
			l-1.4,0.9c-0.2,1.3-0.5,2.3-1.1,2.9s-1.3,1-2.3,1C243.7,151.6,242.8,151,242.2,149.8z M246.5,146.7c0.2-0.5,0.3-1.3,0.3-2.3v-3.1
			c0-1-0.1-1.7-0.3-2.2c-0.2-0.5-0.5-0.7-1-0.7c-0.9,0-1.3,1-1.3,3v3.1c0,1,0.1,1.8,0.3,2.3c0.2,0.5,0.5,0.7,1,0.7
			C246,147.5,246.3,147.2,246.5,146.7z"/>
		<path class="st2" d="M256.5,134.5h5.7v3.8h-5.7V134.5z M258.4,150.3c-0.5-0.8-0.7-1.9-0.7-3.3v-17.4h3.1v16.3c0,0.4,0.1,0.7,0.2,1
			c0.1,0.2,0.3,0.3,0.5,0.3h0.8v4.3h-1.6C259.7,151.4,258.9,151.1,258.4,150.3z"/>
		<path class="st2" d="M264.9,127.7h3.1v23.6h-3.1V127.7z M271.7,141.1c0-0.8-0.2-1.5-0.5-1.9c-0.3-0.5-0.8-0.7-1.4-0.7
			c-0.6,0-1,0.2-1.3,0.7c-0.3,0.5-0.5,1.1-0.5,1.9l-0.2-3.7c0.4-1.1,0.8-1.9,1.3-2.4c0.5-0.5,1.1-0.8,1.9-0.8c1.2,0,2.2,0.6,2.9,1.8
			c0.7,1.2,1,2.9,1,5.1v10.2h-3.1V141.1z"/>
		<path class="st2" d="M280,150.7c-0.8-0.6-1.4-1.5-1.8-2.6c-0.4-1.1-0.6-2.5-0.6-4.1v-1.9c0-1.7,0.2-3.1,0.6-4.3s1-2.1,1.8-2.7
			s1.7-0.9,2.8-0.9c1,0,1.9,0.4,2.6,1.1c0.7,0.7,1.3,1.8,1.7,3.2s0.6,3.1,0.6,5.1v1.1h-8v-3h5.2l0-0.4c-0.1-1-0.3-1.7-0.6-2.3
			c-0.3-0.5-0.8-0.8-1.4-0.8c-0.7,0-1.3,0.3-1.7,1c-0.4,0.6-0.6,1.5-0.6,2.7v2.1c0,1.1,0.2,2,0.7,2.7c0.4,0.6,1.1,0.9,1.9,0.9
			c0.4,0,0.8-0.1,1.2-0.3c0.4-0.2,0.8-0.5,1.1-0.9l2,2.6c-0.6,0.8-1.3,1.4-2.1,1.9c-0.8,0.4-1.5,0.7-2.3,0.7
			C281.7,151.6,280.8,151.3,280,150.7z"/>
		<path class="st2" d="M292.4,150.7c-0.8-0.6-1.4-1.5-1.8-2.6c-0.4-1.1-0.6-2.5-0.6-4.1v-1.9c0-1.7,0.2-3.1,0.6-4.3s1-2.1,1.8-2.7
			s1.7-0.9,2.8-0.9c1,0,1.9,0.4,2.6,1.1c0.7,0.7,1.3,1.8,1.7,3.2s0.6,3.1,0.6,5.1v1.1h-8v-3h5.2l0-0.4c-0.1-1-0.3-1.7-0.6-2.3
			c-0.3-0.5-0.8-0.8-1.4-0.8c-0.7,0-1.3,0.3-1.7,1c-0.4,0.6-0.6,1.5-0.6,2.7v2.1c0,1.1,0.2,2,0.7,2.7c0.4,0.6,1.1,0.9,1.9,0.9
			c0.4,0,0.8-0.1,1.2-0.3c0.4-0.2,0.8-0.5,1.1-0.9l2,2.6c-0.6,0.8-1.3,1.4-2.1,1.9c-0.8,0.4-1.5,0.7-2.3,0.7
			C294.1,151.6,293.2,151.3,292.4,150.7z"/>
		<path class="st2" d="M302.6,134.5h3.3v16.9h-3.3V134.5z M308.7,138.7c-0.2-0.1-0.5-0.2-0.8-0.2c-0.6,0-1.1,0.3-1.5,0.9
			c-0.3,0.6-0.5,1.4-0.5,2.4l-0.2-4.4c0.3-1,0.7-1.8,1.3-2.3c0.5-0.6,1.1-0.8,1.7-0.8c0.5,0,0.9,0.1,1.3,0.3c0.4,0.2,0.7,0.5,1,1
			l-1.8,3.6C309.1,139,308.9,138.8,308.7,138.7z"/>
		<path class="st2" d="M315.6,144.7c0,0.8,0.2,1.4,0.5,1.9c0.3,0.4,0.8,0.7,1.3,0.7c0.6,0,1-0.2,1.3-0.7c0.3-0.5,0.5-1.1,0.5-2
			l0.2,3.7c-0.2,0.9-0.6,1.7-1.1,2.3s-1.1,0.9-1.9,0.9c-1.3,0-2.2-0.6-2.9-1.7c-0.7-1.2-1-2.8-1-4.9v-10.4h3.1V144.7z M319.2,134.5
			h3.1v16.9h-3.1V134.5z"/>
		<path class="st2" d="M326.8,150.7c-0.6-0.6-1-1.4-1.3-2.5c-0.3-1.1-0.5-2.4-0.5-3.9v-2.7c0-1.5,0.2-2.9,0.5-4
			c0.3-1.1,0.8-1.9,1.3-2.5c0.6-0.6,1.3-0.9,2.1-0.9c0.6,0,1.2,0.3,1.7,0.8c0.5,0.5,0.9,1.3,1.2,2.3l-0.2,3.7c0-0.6-0.1-1.1-0.2-1.5
			s-0.3-0.7-0.6-0.9s-0.6-0.3-0.9-0.3c-0.6,0-1,0.3-1.3,0.9c-0.3,0.6-0.5,1.4-0.5,2.4v2.7c0,1,0.2,1.8,0.5,2.3
			c0.3,0.6,0.8,0.8,1.3,0.8c0.4,0,0.7-0.1,0.9-0.3c0.3-0.2,0.5-0.5,0.6-0.9c0.1-0.4,0.2-0.9,0.2-1.4l0.2,3.9
			c-0.2,0.9-0.6,1.6-1.1,2.1c-0.5,0.5-1.1,0.8-1.8,0.8C328.1,151.6,327.4,151.3,326.8,150.7z M331.7,127.7h3.1v23.6h-3.1V127.7z"/>
		<path class="st2" d="M337.7,127.7h3.1v4.5h-3.1V127.7z M337.7,134.5h3.1v16.9h-3.1V134.5z"/>
		<path class="st2" d="M342.7,134.5h5.7v3.8h-5.7V134.5z M344.7,150.3c-0.5-0.8-0.7-1.9-0.7-3.3v-17.4h3.1v16.3c0,0.4,0.1,0.7,0.2,1
			c0.1,0.2,0.3,0.3,0.5,0.3h0.8v4.3h-1.6C345.9,151.4,345.1,151.1,344.7,150.3z"/>
		<path class="st2" d="M353.2,150.7c-0.8-0.6-1.3-1.4-1.7-2.5c-0.4-1.1-0.6-2.4-0.6-4v-2.7c0-1.5,0.2-2.8,0.6-3.9
			c0.4-1.1,1-1.9,1.7-2.5c0.8-0.6,1.7-0.9,2.7-0.9c1.1,0,2,0.3,2.7,0.9c0.8,0.6,1.3,1.4,1.7,2.5c0.4,1.1,0.6,2.4,0.6,3.9v2.8
			c0,1.5-0.2,2.9-0.6,3.9c-0.4,1.1-1,1.9-1.7,2.5c-0.8,0.6-1.7,0.9-2.7,0.9C354.8,151.6,353.9,151.3,353.2,150.7z M357.3,146.5
			c0.3-0.5,0.5-1.3,0.5-2.2v-2.8c0-0.9-0.2-1.7-0.5-2.2c-0.3-0.5-0.8-0.8-1.5-0.8c-0.6,0-1.1,0.3-1.4,0.8c-0.3,0.5-0.5,1.2-0.5,2.2
			v2.8c0,1,0.2,1.7,0.5,2.2c0.3,0.5,0.8,0.8,1.4,0.8C356.5,147.3,357,147,357.3,146.5z"/>
	</g>
</g>
</svg>
