<?xml version="1.0" ?><svg viewBox="0 0 64 64" xmlns="http://www.w3.org/2000/svg"><title/><g data-name="47-nurse" id="_47-nurse"><polygon points="45 51 45 57 41 59 37 57 37 51 45 51" style="fill:#414952"/><polygon points="27 51 27 57 23 59 19 57 19 51 27 51" style="fill:#414952"/><polygon points="32 41 29 44 25 40 25 37.63 28 37 32 41" style="fill:#414952"/><polygon points="39 37.63 39 40 35 44 32 41 36 37 39 37.63" style="fill:#414952"/><path d="M27,51H19v6l4,2,4-2Zm5-10V63H9V41l16-3.37V40l4,4Z" style="fill:#e9edf5"/><path d="M45,51H37v6l4,2,4-2Zm4,12H32V41l3,3,4-4V37.63L55,41V63Z" style="fill:#e9edf5"/><polygon points="23 62 27 60 27 57 23 59 19 57 19 60 23 62" style="fill:#afb4c8"/><polygon points="29 44 25 40 25 37.63 9 41 9 44 25 40.63 25 43 29 47 32 44 32 41 29 44" style="fill:#afb4c8"/><polygon points="39 37.63 39 40 35 44 32 41 32 44 35 47 39 43 39 40.63 55 44 55 41 39 37.63" style="fill:#afb4c8"/><polygon points="41 62 45 60 45 57 41 59 37 57 37 60 41 62" style="fill:#afb4c8"/><path d="M24,13.94V16a4.025,4.025,0,0,0-2.83,1.17L21,17l-1-1V13a12,12,0,0,1,24,0v3l-1,1-.17.17A4.025,4.025,0,0,0,40,16V13.93c-4.79-.36-5.75-2.01-5.95-2.66A22.912,22.912,0,0,1,24,13.94Z" style="fill:#bc6829"/><path d="M31.05,11.27A22.912,22.912,0,0,1,21,13.94V16a3.973,3.973,0,0,0-.891.109L21,17l.17.17A4.025,4.025,0,0,1,24,16V13.94a24.98,24.98,0,0,0,7.79-1.611A2.358,2.358,0,0,1,31.05,11.27Z" style="fill:#9e5015"/><path d="M32,1a11.968,11.968,0,0,0-1.5.1A11.99,11.99,0,0,1,41,13v3l-.109.109A4.054,4.054,0,0,1,42.83,17.17L43,17l1-1V13A12,12,0,0,0,32,1Z" style="fill:#9e5015"/><path d="M24,16v8a4,4,0,1,1,0-8Z" style="fill:#eb975d"/><path d="M42.83,17.17A4,4,0,0,1,40,24V16A4.025,4.025,0,0,1,42.83,17.17Z" style="fill:#eb975d"/><path d="M36,32v5l-4,4-4-4V32l.03-.06a7.964,7.964,0,0,0,7.94,0Z" style="fill:#ffb680"/><path d="M35.97,31.94a7.964,7.964,0,0,1-7.94,0L28,32v3l.03-.06a7.964,7.964,0,0,0,7.94,0L36,35V32Z" style="fill:#eb975d"/><path d="M40,24v1a7.992,7.992,0,0,1-11.97,6.94,7.838,7.838,0,0,1-1.69-1.28A8.014,8.014,0,0,1,24,25V13.94a22.912,22.912,0,0,0,10.05-2.67c.2.65,1.16,2.3,5.95,2.66V24Z" style="fill:#ffdaaa"/><path d="M34.05,11.27A22.912,22.912,0,0,1,24,13.94v4a22.912,22.912,0,0,0,10.05-2.67c.2.65,1.16,2.3,5.95,2.66v-4C35.21,13.57,34.25,11.92,34.05,11.27Z" style="fill:#ffb680"/><path d="M40,14V25a7.992,7.992,0,0,1-11.97,6.94,7.838,7.838,0,0,1-1.69-1.28A8.014,8.014,0,0,1,24,25V14" style="fill:none;stroke:#000;stroke-linejoin:round;stroke-width:2px"/><path d="M43,17l1-1V13a12,12,0,0,0-24,0v3l1,1" style="fill:none;stroke:#000;stroke-linejoin:round;stroke-width:2px"/><path d="M40,24a4,4,0,1,0,0-8" style="fill:none;stroke:#000;stroke-linejoin:round;stroke-width:2px"/><path d="M24,16a4,4,0,0,0,0,8" style="fill:none;stroke:#000;stroke-linejoin:round;stroke-width:2px"/><polyline points="28 32 28 37 25 37.63 9 41 9 63 15 63 32 63 49 63 55 63 55 41 39 37.63 36 37 36 32" style="fill:none;stroke:#000;stroke-linejoin:round;stroke-width:2px"/><line style="fill:none;stroke:#000;stroke-linejoin:round;stroke-width:2px" x1="15" x2="15" y1="63" y2="50"/><line style="fill:none;stroke:#000;stroke-linejoin:round;stroke-width:2px" x1="49" x2="49" y1="63" y2="50"/><path d="M37,9a10.78,10.78,0,0,1-2.95,2.27A22.912,22.912,0,0,1,24,13.94c-.64.04-1.31.06-2,.06" style="fill:none;stroke:#000;stroke-linejoin:round;stroke-width:2px"/><path d="M34,11a1.066,1.066,0,0,0,.05.27c.2.65,1.16,2.3,5.95,2.66.61.04,1.27.07,2,.07" style="fill:none;stroke:#000;stroke-linejoin:round;stroke-width:2px"/><polyline points="28 37 32 41 36 37" style="fill:none;stroke:#000;stroke-linejoin:round;stroke-width:2px"/><polyline points="39 37 39 37.63 39 40 35 44 32 41 29 44 25 40 25 37.63 25 37" style="fill:none;stroke:#000;stroke-linejoin:round;stroke-width:2px"/><line style="fill:none;stroke:#000;stroke-linejoin:round;stroke-width:2px" x1="32" x2="32" y1="41" y2="63"/><polygon points="45 57 45 51 37 51 37 57 41 59 45 57" style="fill:none;stroke:#000;stroke-linejoin:round;stroke-width:2px"/><polygon points="27 57 27 51 19 51 19 57 23 59 27 57" style="fill:none;stroke:#000;stroke-linejoin:round;stroke-width:2px"/><line style="fill:none;stroke:#000;stroke-linejoin:round;stroke-width:2px" x1="18" x2="28" y1="48" y2="48"/><line style="fill:none;stroke:#000;stroke-linejoin:round;stroke-width:2px" x1="36" x2="46" y1="48" y2="48"/></g></svg>